<svg width="18" height="18" viewBox="0 0 18 18"  xmlns="http://www.w3.org/2000/svg">
<path d="M10.5923 9.00019L17.6709 1.92162C18.1107 1.48221 18.1107 0.769247 17.6709 0.329838C17.2311 -0.109946 16.5189 -0.109946 16.0791 0.329838L9.00056 7.40841L1.92162 0.329838C1.48183 -0.109946 0.769622 -0.109946 0.329838 0.329838C-0.109946 0.769247 -0.109946 1.48221 0.329838 1.92162L7.40878 9.00019L0.329838 16.0788C-0.109946 16.5182 -0.109946 17.2311 0.329838 17.6705C0.54973 17.8901 0.837916 18 1.12573 18C1.41354 18 1.70172 17.8901 1.92162 17.6702L9.00056 10.5916L16.0791 17.6702C16.299 17.8901 16.5872 18 16.875 18C17.1628 18 17.451 17.8901 17.6709 17.6702C18.1107 17.2308 18.1107 16.5178 17.6709 16.0784L10.5923 9.00019Z" />
</svg>
