<svg width="32" height="31" viewBox="0 0 32 31" xmlns="http://www.w3.org/2000/svg">
<path d="M13.1796 3.09998C12.3574 3.09998 11.5689 3.42658 10.9876 4.00794C10.4062 4.58931 10.0796 5.3778 10.0796 6.19998V21.7C10.0796 22.5222 10.4062 23.3106 10.9876 23.892C11.5689 24.4734 12.3574 24.8 13.1796 24.8H22.4796C23.3018 24.8 24.0903 24.4734 24.6716 23.892C25.253 23.3106 25.5796 22.5222 25.5796 21.7V6.19998C25.5796 5.3778 25.253 4.58931 24.6716 4.00794C24.0903 3.42658 23.3018 3.09998 22.4796 3.09998H13.1796ZM11.6296 6.19998C11.6296 5.78889 11.7929 5.39464 12.0836 5.10396C12.3743 4.81328 12.7685 4.64998 13.1796 4.64998H22.4796C22.8907 4.64998 23.2849 4.81328 23.5756 5.10396C23.8663 5.39464 24.0296 5.78889 24.0296 6.19998V21.7C24.0296 22.1111 23.8663 22.5053 23.5756 22.796C23.2849 23.0867 22.8907 23.25 22.4796 23.25H13.1796C12.7685 23.25 12.3743 23.0867 12.0836 22.796C11.7929 22.5053 11.6296 22.1111 11.6296 21.7V6.19998Z" />
<path d="M6.97961 9.29996C6.97963 8.75581 7.12287 8.22124 7.39496 7.75C7.66704 7.27876 8.05837 6.88743 8.52961 6.61536V22.475C8.52961 23.5027 8.93787 24.4883 9.66458 25.215C10.3913 25.9417 11.3769 26.35 12.4046 26.35H22.0642C21.7921 26.8212 21.4008 27.2125 20.9296 27.4846C20.4583 27.7567 19.9238 27.8999 19.3796 27.9H12.4046C10.9658 27.9 9.58595 27.3284 8.56856 26.311C7.55118 25.2936 6.97961 23.9138 6.97961 22.475V9.29996Z"/>
</svg>
