<svg width="71" height="35" viewBox="0 0 71 35" fill="none" xmlns="http://www.w3.org/2000/svg">
<path d="M40.2532 9.44249C43.1848 9.44249 44.8211 6.83782 44.8211 4.26055C44.8211 2.33444 43.413 0.939453 41.2353 0.939453C38.2944 0.939453 36.6567 3.54021 36.6567 6.10705C36.6581 8.03315 38.0515 9.44249 40.2532 9.44249ZM41.0919 2.98953C41.8563 2.98953 42.3168 3.55457 42.3168 4.33232C42.3168 5.72731 41.5325 7.37807 40.3726 7.37807C39.6082 7.37807 39.157 6.81302 39.157 6.03527C39.157 4.66508 39.9307 2.98953 41.0919 2.98953Z" fill="white"/>
<path d="M61.589 9.44251L62.1875 6.68777H62.8577L63.1934 9.44251H65.7216L65.1469 6.3785C66.2391 5.8265 66.9266 4.68076 66.9133 3.43193C66.9146 2.75205 66.6426 2.10088 66.1635 1.62979C65.6844 1.16001 65.0381 0.910767 64.3759 0.942086H61.0634L59.228 9.44251H61.589ZM62.9678 3.03522H63.853C64.0242 3.01956 64.1941 3.08089 64.3162 3.20356C64.4396 3.32623 64.5046 3.49848 64.494 3.67465C64.502 3.92259 64.4091 4.1627 64.2352 4.33495C64.0614 4.50851 63.8251 4.59724 63.5836 4.58289H62.6506L62.9678 3.03522Z" fill="white"/>
<path d="M58.3288 9.44249L58.7866 7.33892H55.859L56.0979 6.19187H58.9472L59.4197 4.08829H56.5704L56.7946 3.04433H59.7222L60.1894 0.939453H54.8557L52.9858 9.44249H58.3288Z" fill="white"/>
<path d="M47.3056 9.44249L47.7781 7.38851L48.5067 6.48548L49.421 9.44249H52.1668L50.3925 4.89214L53.9465 0.939453H50.9499L48.5319 4.02435L49.226 0.939453H46.7575L44.8213 9.44249H47.3056Z" fill="white"/>
<path d="M36.2267 11.332L34.0569 15.0785L33.6362 11.332H30.4405L28.4937 19.8351H30.9913L32.0291 15.2312L32.5851 19.8351H33.53L36.1749 15.2312L35.1332 19.8351H37.6069L39.5392 11.332H36.2267Z" fill="white"/>
<path d="M57.0835 17.7736C56.3536 17.7736 55.905 17.2333 55.905 16.4321C55.905 15.0384 56.6588 13.389 57.7988 13.389C58.4504 13.389 58.8273 13.9527 58.9043 14.6587L61.1498 14.0897C60.952 12.7822 60.0828 11.3311 57.9236 11.3311C55.1128 11.3311 53.4658 13.8287 53.4658 16.4921C53.4658 18.5252 54.915 19.8341 56.972 19.8341C58.3748 19.808 59.6462 19.0198 60.2712 17.7866L58.3881 16.8144C58.1664 17.3482 57.6648 17.7162 57.0835 17.7736Z" fill="white"/>
<path d="M67.3103 11.332L66.6122 14.4026H64.4079L65.1006 11.332H62.6163L60.6694 19.8351H63.1684L63.9169 16.5061H66.1265L65.378 19.8351H67.8624L69.7946 11.332H67.3103Z" fill="white"/>
<path d="M47.6735 11.332L47.2236 13.4317H48.9436L47.5581 19.8351H49.9256L51.2952 13.4317H53.0019L53.4663 11.332H47.6735Z" fill="white"/>
<path d="M31.4498 6.69715H32.6654C35.2307 6.69715 36.1756 4.85848 36.1756 3.39302C36.1929 2.73794 35.9474 2.10373 35.4962 1.64048C35.0449 1.17722 34.4292 0.924062 33.7908 0.942331H30.3284L28.4917 9.44407H30.8473L31.4498 6.69715ZM32.2315 3.04982H33.1419C33.3078 3.03025 33.4723 3.08767 33.5918 3.20642C33.7112 3.32517 33.7736 3.4922 33.7616 3.66315C33.7563 4.1786 33.3476 4.59488 32.8459 4.59488H31.8917L32.2315 3.04982Z" fill="white"/>
<path d="M42.605 11.332L38.0981 19.8351H40.8824L41.3881 18.7415H43.6614V19.8351H46.2639L45.6229 11.332H42.605ZM43.6455 16.6484H42.3568L43.6455 13.8284V16.6484Z" fill="white"/>
<path d="M22.409 7.6011H17.3832L18.3002 3.2739C18.3255 3.15384 18.3387 3.03118 18.3387 2.90851C18.3387 1.9298 17.5398 1.1377 16.5538 1.1377H6.04972C4.99467 1.1377 4.08428 1.87108 3.86663 2.89546L0.455967 18.9789C0.430752 19.099 0.41748 19.2217 0.41748 19.3443C0.41748 20.323 1.2164 21.1151 2.20244 21.1151H6.21694L5.23753 25.4424C5.21099 25.5624 5.19639 25.6851 5.19639 25.8077C5.19639 26.7865 6.04839 27.5786 7.09946 27.5786H18.3042C19.4296 27.5786 20.4011 26.8452 20.632 25.8208L24.2696 9.7373C24.2961 9.61725 24.3107 9.49458 24.3107 9.37192C24.312 8.39451 23.46 7.6011 22.409 7.6011ZM2.34179 19.9407C1.93967 19.9407 1.6132 19.6158 1.6132 19.2138C1.6132 19.1629 1.61851 19.1134 1.62913 19.0638L4.97344 3.23475C5.08757 2.69711 5.564 2.31215 6.11475 2.31215H16.4158C16.8179 2.31215 17.1443 2.63708 17.1443 3.039C17.1443 3.0899 17.139 3.13949 17.1284 3.18907L16.1968 7.6011H11.2042C10.0788 7.6011 9.10737 8.33448 8.87646 9.35887L6.48236 19.9407H2.34179ZM15.9473 8.77686L13.7828 19.0181C13.6686 19.5557 13.1922 19.9407 12.6415 19.9407H7.67941L10.0098 9.69946C10.1319 9.16182 10.6455 8.77686 11.2387 8.77686H15.9473ZM23.1004 9.65248L19.4986 25.4815C19.3765 26.0191 18.8629 26.4041 18.2697 26.4041H7.17643C6.74247 26.4041 6.39079 26.0792 6.39079 25.6772C6.39079 25.6264 6.3961 25.5768 6.40804 25.5272L7.41266 21.1151H12.7078C13.7629 21.1151 14.6733 20.3818 14.8909 19.3574L17.135 8.77556H22.3333C22.7673 8.77556 23.119 9.10049 23.119 9.50241C23.1176 9.55331 23.111 9.60289 23.1004 9.65248Z" fill="white"/>
<path fill-rule="evenodd" clip-rule="evenodd" d="M37.0823 24.0201C36.6395 24.0211 36.2507 24.3134 36.1267 24.7384L34.6797 29.6982C34.4925 30.3397 34.9753 30.9818 35.6436 30.9803L67.9405 30.9081C68.3833 30.9071 68.7722 30.6148 68.8962 30.1898L70.3432 25.23C70.5303 24.5885 70.0475 23.9463 69.3792 23.9478L37.0823 24.0201ZM64.3848 27.8365C64.3887 28.5138 63.8456 28.9479 63.0144 28.9473C62.5285 28.947 62.0673 28.7879 61.8146 28.5822L62.0926 27.9985C62.3667 28.2182 62.7254 28.3399 63.0792 28.3401C63.4585 28.3404 63.6964 28.1957 63.695 27.9575C63.6938 27.7405 63.4389 27.6616 63.1406 27.5691C62.7196 27.4388 62.2122 27.2816 62.2087 26.6719C62.2049 25.9993 62.7394 25.5652 63.5663 25.5657C63.967 25.566 64.3384 25.6643 64.5994 25.8467L64.3427 26.4258C64.1158 26.2574 63.8255 26.1732 63.5314 26.173C63.1308 26.1727 62.8973 26.3407 62.8986 26.5743C62.8981 26.8014 63.1626 26.8825 63.4685 26.9765C63.8863 27.1047 64.3815 27.2567 64.3848 27.8365ZM61.8063 26.6343C61.8027 25.9943 61.3743 25.6204 60.6327 25.6199L59.4179 25.6191L58.8398 28.8886L59.5346 28.889L59.6956 27.9736L60.2838 27.974L60.7578 28.8898L61.4867 28.8903L60.961 27.881C61.4927 27.6991 61.8098 27.2509 61.8063 26.6343ZM60.3869 27.3714L59.7987 27.371L60.0011 26.2361L60.5467 26.2364C60.9005 26.2367 61.1059 26.3863 61.1077 26.7039C61.1102 27.1383 60.843 27.3717 60.3869 27.3714ZM58.8131 25.6187L58.7015 26.2259L57.1372 26.2249L57.0134 26.9348L58.3986 26.9357L58.2954 27.5242L56.9059 27.5233L56.7738 28.28L58.402 28.281L58.2904 28.8882L55.9802 28.8867L56.5583 25.6172L58.8131 25.6187ZM55.1705 25.6163L54.8113 27.6668L53.6872 25.6153L53.116 25.615L52.5379 28.8845L53.2199 28.8849L53.5833 26.8391L54.7074 28.8859L55.2743 28.8862L55.8524 25.6168L55.1705 25.6163ZM51.2116 28.8836L50.5211 28.8831L50.9877 26.2302L50.0329 26.2296L50.1445 25.613L52.7445 25.6147L52.6329 26.2313L51.6824 26.2306L51.2116 28.8836ZM49.7769 26.6265C49.7733 25.9865 49.3449 25.6125 48.6033 25.612L47.3885 25.6112L46.8104 28.8807L47.5052 28.8812L47.6662 27.9657L48.2544 27.9661L48.7285 28.882L49.4573 28.8825L48.9316 27.8731C49.4633 27.6913 49.7805 27.2431 49.7769 26.6265ZM48.3575 27.3636L47.7693 27.3632L47.9717 26.2282L48.5173 26.2286C48.8711 26.2288 49.0765 26.3784 49.0783 26.6961C49.0808 27.1305 48.8136 27.3639 48.3575 27.3636ZM46.5009 28.8805L45.8104 28.8801L45.6657 28.1793L44.2762 28.1784L43.8923 28.8788L43.155 28.8783L45.0672 25.6097L45.7492 25.6102L46.5009 28.8805ZM45.2887 26.3433L44.5926 27.604L45.5474 27.6047L45.2887 26.3433ZM41.1949 25.6072L42.4011 25.608C43.147 25.6085 43.5711 25.9871 43.5748 26.6271C43.5795 27.4586 43.0241 27.9767 42.1333 27.9761L41.4683 27.9757L41.3115 28.8771L40.6167 28.8767L41.1949 25.6072ZM41.5757 27.3592L42.1596 27.3595C42.6157 27.3598 42.8786 27.1264 42.8761 26.692C42.8743 26.3744 42.6689 26.2248 42.3194 26.2245L41.7781 26.2242L41.5757 27.3592Z" fill="white"/>
</svg>
