<svg width="104" height="50" viewBox="0 0 104 50" fill="none" xmlns="http://www.w3.org/2000/svg">
<path d="M58.5743 12.7593C62.8789 12.7593 65.2816 8.9639 65.2816 5.20845C65.2816 2.40184 63.2141 0.369141 60.0163 0.369141C55.6981 0.369141 53.2935 4.15882 53.2935 7.89906C53.2954 10.7057 55.3415 12.7593 58.5743 12.7593ZM59.8059 3.35639C60.9283 3.35639 61.6045 4.17974 61.6045 5.31303C61.6045 7.34573 60.4528 9.75112 58.7497 9.75112C57.6273 9.75112 56.9647 8.92777 56.9647 7.79448C56.9647 5.79791 58.1008 3.35639 59.8059 3.35639Z" fill="white"/>
<path d="M89.9027 12.7593L90.7816 8.74526H91.7656L92.2587 12.7593H95.9709L95.1271 8.29461C96.7308 7.49027 97.7402 5.82076 97.7208 4.00103C97.7227 3.01035 97.3232 2.0615 96.6198 1.37506C95.9163 0.690526 94.9673 0.327341 93.9949 0.372977H89.131L86.436 12.7593H89.9027ZM91.9274 3.42297H93.2271C93.4785 3.40016 93.7279 3.48953 93.9072 3.66827C94.0885 3.84701 94.1839 4.09801 94.1683 4.35471C94.18 4.71599 94.0436 5.06587 93.7884 5.31686C93.5331 5.56976 93.1862 5.69906 92.8316 5.67815H91.4616L91.9274 3.42297Z" fill="white"/>
<path d="M85.1158 12.7593L85.7881 9.69408H81.4894L81.8401 8.02266H86.0239L86.7176 4.95745H82.5338L82.8632 3.43625H87.1619L87.8479 0.369141H80.0162L77.2705 12.7593H85.1158Z" fill="white"/>
<path d="M68.9301 12.7593L69.6238 9.76633L70.6937 8.4505L72.0363 12.7593H76.0681L73.4627 6.12877L78.6812 0.369141H74.2812L70.7307 4.86428L71.7498 0.369141H68.1253L65.2822 12.7593H68.9301Z" fill="white"/>
<path d="M52.662 15.5127L49.4759 20.9719L48.8582 15.5127H44.1658L41.3071 27.9028H44.9745L46.4984 21.1944L47.3149 27.9028H48.7023L52.586 21.1944L51.0563 27.9028H54.6886L57.5258 15.5127H52.662Z" fill="white"/>
<path d="M83.2872 24.8984C82.2154 24.8984 81.5567 24.1112 81.5567 22.9437C81.5567 20.9129 82.6636 18.5094 84.3375 18.5094C85.2943 18.5094 85.8477 19.3308 85.9607 20.3596L89.2579 19.5305C88.9675 17.6252 87.6911 15.5107 84.5207 15.5107C80.3934 15.5107 77.9751 19.1502 77.9751 23.0312C77.9751 25.9937 80.103 27.9009 83.1235 27.9009C85.1832 27.8629 87.05 26.7144 87.9678 24.9174L85.2027 23.5008C84.8773 24.2785 84.1407 24.8148 83.2872 24.8984Z" fill="white"/>
<path d="M98.3038 15.5127L97.2788 19.9869H94.0421L95.0593 15.5127H91.4114L88.5527 27.9028H92.2221L93.3211 23.0521H96.5656L95.4666 27.9028H99.1145L101.952 15.5127H98.3038Z" fill="white"/>
<path d="M69.4702 15.5127L68.8096 18.5722H71.335L69.3006 27.9028H72.7771L74.7881 18.5722H77.2941L77.9761 15.5127H69.4702Z" fill="white"/>
<path d="M45.6483 8.75852H47.4332C51.2 8.75852 52.5874 6.07932 52.5874 3.94394C52.6128 2.98939 52.2523 2.06526 51.5897 1.39023C50.9272 0.715199 50.023 0.346308 49.0857 0.372929H44.0016L41.3047 12.7612H44.7636L45.6483 8.75852ZM46.796 3.44384H48.1328C48.3764 3.41532 48.618 3.49899 48.7934 3.67202C48.9688 3.84506 49.0604 4.08845 49.0428 4.33755C49.035 5.08864 48.4348 5.69522 47.6982 5.69522H46.2972L46.796 3.44384Z" fill="white"/>
<path d="M62.0278 15.5127L55.4102 27.9028H59.4985L60.2409 26.3094H63.579V27.9028H67.4003L66.4591 15.5127H62.0278ZM63.5556 23.2594H61.6634L63.5556 19.1503V23.2594Z" fill="white"/>
<path d="M32.3728 10.0763H24.9932L26.3398 3.77095C26.3768 3.59601 26.3963 3.41727 26.3963 3.23853C26.3963 1.81241 25.2232 0.658203 23.7753 0.658203H8.35167C6.80248 0.658203 5.4657 1.72684 5.14612 3.21952L0.138054 26.6555C0.10103 26.8304 0.081543 27.0091 0.081543 27.1879C0.081543 28.614 1.25464 29.7682 2.70249 29.7682H8.5972L7.15909 36.0736C7.12011 36.2485 7.09868 36.4272 7.09868 36.606C7.09868 38.0321 8.34972 39.1863 9.89306 39.1863H26.3456C27.9981 39.1863 29.4245 38.1177 29.7636 36.625L35.1049 13.1891C35.1438 13.0141 35.1653 12.8354 35.1653 12.6566C35.1672 11.2324 33.9162 10.0763 32.3728 10.0763ZM2.9071 28.0569C2.31666 28.0569 1.83729 27.5834 1.83729 26.9977C1.83729 26.9236 1.84508 26.8513 1.86067 26.779L6.7713 3.71391C6.93889 2.93049 7.63846 2.36955 8.44715 2.36955H23.5727C24.1631 2.36955 24.6425 2.84302 24.6425 3.42868C24.6425 3.50284 24.6347 3.5751 24.6191 3.64735L23.2511 10.0763H15.9203C14.2678 10.0763 12.8414 11.145 12.5023 12.6376L8.98693 28.0569H2.9071ZM22.8848 11.7896L19.7065 26.7125C19.5389 27.4959 18.8394 28.0569 18.0307 28.0569H10.7446L14.1665 13.1339C14.3458 12.3505 15.0999 11.7896 15.9709 11.7896H22.8848ZM33.3881 13.0655L28.0994 36.1306C27.9201 36.914 27.166 37.475 26.295 37.475H10.0061C9.36887 37.475 8.85247 37.0015 8.85247 36.4158C8.85247 36.3417 8.86027 36.2694 8.87781 36.1972L10.3529 29.7682H18.1281C19.6773 29.7682 21.0141 28.6996 21.3337 27.2069L24.6288 11.7877H32.2618C32.899 11.7877 33.4154 12.2611 33.4154 12.8468C33.4134 12.9209 33.4037 12.9932 33.3881 13.0655Z" fill="white"/>
<path fill-rule="evenodd" clip-rule="evenodd" d="M53.5908 33.9451C53.1481 33.9454 52.7584 34.2367 52.6327 34.6611L50.2085 42.8461C50.0186 43.4873 50.4993 44.1306 51.168 44.1301L99.558 44.0956C100.001 44.0953 100.39 43.804 100.516 43.3796L102.94 35.1945C103.13 34.5534 102.649 33.9101 101.981 33.9106L53.5908 33.9451ZM94.0022 39.5883C94.004 40.5847 93.2042 41.2224 91.984 41.2203C91.2707 41.2191 90.5945 40.9844 90.2248 40.6814L90.6363 39.8231C91.0373 40.1468 91.5632 40.3263 92.0826 40.3272C92.6395 40.3281 92.9895 40.1157 92.9889 39.7653C92.9883 39.4461 92.6146 39.3295 92.1772 39.1932C91.56 39.0007 90.8159 38.7687 90.8143 37.8719C90.8126 36.8824 91.5998 36.2447 92.8137 36.2468C93.4019 36.2478 93.9465 36.393 94.3287 36.6616L93.9485 37.513C93.6164 37.2651 93.1907 37.1407 92.759 37.14C92.1708 37.139 91.8271 37.3858 91.8277 37.7293C91.8257 38.0634 92.2134 38.1832 92.662 38.3218C93.2746 38.5111 94.0007 38.7354 94.0022 39.5883ZM90.2238 37.816C90.2222 36.8746 89.5955 36.3238 88.5067 36.322L86.7235 36.319L85.8559 41.1276L86.8759 41.1293L87.1175 39.7829L87.981 39.7843L88.6717 41.1323L89.7416 41.1341L88.9756 39.6486C89.7573 39.3819 90.2254 38.723 90.2238 37.816ZM88.1359 38.8982L87.2724 38.8967L87.576 37.2274L88.3769 37.2288C88.8963 37.2297 89.197 37.4501 89.1978 37.9173C89.199 38.5564 88.8054 38.8993 88.1359 38.8982ZM85.8356 36.3175L85.6682 37.2105L83.3718 37.2066L83.186 38.2508L85.2195 38.2542L85.0646 39.1197L83.0248 39.1163L82.8265 40.2291L85.2168 40.2332L85.0494 41.1262L81.658 41.1205L82.5256 36.3119L85.8356 36.3175ZM80.4881 36.3084L79.9491 39.3241L78.3106 36.3048L77.4722 36.3034L76.6047 41.112L77.6058 41.1136L78.1511 38.1048L79.7895 41.1173L80.6217 41.1187L81.4893 36.3101L80.4881 36.3084ZM74.6577 41.1087L73.644 41.107L74.3442 37.2051L72.9426 37.2028L73.1099 36.296L76.9268 36.3024L76.7594 37.2092L75.3641 37.2069L74.6577 41.1087ZM72.5645 37.7862C72.5628 36.8448 71.9362 36.294 70.8474 36.2922L69.0641 36.2892L68.1966 41.0978L69.2165 41.0995L69.4582 39.7531L70.3217 39.7546L71.0123 41.1025L72.0823 41.1043L71.3163 39.6188C72.098 39.3521 72.5661 38.6933 72.5645 37.7862ZM70.4765 38.8684L69.613 38.8669L69.9167 37.1977L70.7176 37.199C71.237 37.1999 71.5377 37.4203 71.5385 37.8876C71.5396 38.5266 71.146 38.8695 70.4765 38.8684ZM67.7422 41.097L66.7285 41.0953L66.5202 40.0642L64.4804 40.0608L63.9128 41.0906L62.8303 41.0888L65.6563 36.2835L66.6575 36.2851L67.7422 41.097ZM65.9774 37.3628L64.9482 39.2164L66.3498 39.2188L65.9774 37.3628ZM59.9717 36.2739L61.7425 36.2769C62.8375 36.2787 63.4579 36.8363 63.4596 37.7777C63.4617 39.0009 62.6434 39.7622 61.3357 39.76L60.3595 39.7584L60.1241 41.0842L59.1042 41.0825L59.9717 36.2739ZM60.5206 38.8516L61.3779 38.8531C62.0474 38.8542 62.4347 38.5113 62.4336 37.8722C62.4328 37.405 62.132 37.1846 61.6189 37.1837L60.8243 37.1824L60.5206 38.8516Z" fill="#FFC200"/>
</svg>
