<?xml version="1.0" encoding="utf-8"?><svg viewBox="0 0 32 31" xmlns="http://www.w3.org/2000/svg" xmlns:xlink="http://www.w3.org/1999/xlink"><style>:root>svg{display:none}:root>svg:target{display:block}</style><svg viewBox="0 0 18 18" id="close-icon" xmlns="http://www.w3.org/2000/svg"><path d="M10.592 9l7.079-7.078A1.125 1.125 0 1016.079.33L9.001 7.408 1.92.33A1.125 1.125 0 10.33 1.922L7.409 9l-7.08 7.08a1.125 1.125 0 101.593 1.591L9 10.592l7.078 7.078a1.122 1.122 0 001.592 0c.44-.44.44-1.152 0-1.592L10.592 9z"/></svg><svg viewBox="0 0 32 31" id="copy_icon" xmlns="http://www.w3.org/2000/svg"><path d="M13.18 3.1a3.1 3.1 0 00-3.1 3.1v15.5a3.1 3.1 0 003.1 3.1h9.3a3.1 3.1 0 003.1-3.1V6.2a3.1 3.1 0 00-3.1-3.1h-9.3zm-1.55 3.1a1.55 1.55 0 011.55-1.55h9.3a1.55 1.55 0 011.55 1.55v15.5a1.55 1.55 0 01-1.55 1.55h-9.3a1.55 1.55 0 01-1.55-1.55V6.2z"/><path d="M6.98 9.3a3.1 3.1 0 011.55-2.685v15.86a3.875 3.875 0 003.875 3.875h9.66a3.1 3.1 0 01-2.685 1.55h-6.975a5.425 5.425 0 01-5.425-5.425V9.3z"/></svg><svg viewBox="0 0 20 20" id="pass-icon" xmlns="http://www.w3.org/2000/svg"><path d="M19.873 9.611c-.179-.244-4.436-5.985-9.873-5.985-5.437 0-9.695 5.74-9.873 5.985a.66.66 0 000 .778c.178.245 4.436 5.985 9.873 5.985 5.437 0 9.694-5.74 9.873-5.985a.66.66 0 000-.778zM10 15.055c-4.005 0-7.474-3.81-8.5-5.055C2.524 8.753 5.985 4.945 10 4.945c4.005 0 7.473 3.81 8.5 5.056-1.025 1.246-4.486 5.054-8.5 5.054z"/><path d="M10 6.044A3.96 3.96 0 006.044 10 3.96 3.96 0 0010 13.956 3.96 3.96 0 0013.956 10 3.96 3.96 0 0010 6.044zm0 6.593A2.64 2.64 0 017.362 10 2.64 2.64 0 0110 7.363 2.64 2.64 0 0112.637 10 2.64 2.64 0 0110 12.637z"/></svg></svg>